<svg width="32" height="32" viewBox="0 0 32 32" fill="none" xmlns="http://www.w3.org/2000/svg">
<g id="icons 32">
<g id="i-support-07">
<path id="Vector" d="M7 17V14.5C7 9.80558 11.0294 6 16 6C20.9706 6 25 9.80558 25 14.5V17" stroke="#51567A" stroke-width="1.6" stroke-linecap="round" stroke-linejoin="round"/>
<path id="Vector_2" d="M7 15.5H8.5C9.32843 15.5 10 16.1716 10 17V20C10 20.8284 9.32843 21.5 8.5 21.5H8.5C7.11929 21.5 6 20.3807 6 19V17C6 16.1716 6.17157 15.5 7 15.5Z" stroke="#51567A" stroke-width="1.6" stroke-linecap="round" stroke-linejoin="round"/>
<path id="Vector_3" d="M25 15.5H23.5C22.6716 15.5 22 16.1716 22 17V20C22 20.8284 22.6716 21.5 23.5 21.5H23.5C24.8807 21.5 26 20.3807 26 19V17C26 16.1716 25.8284 15.5 25 15.5Z" stroke="#51567A" stroke-width="1.6" stroke-linecap="round" stroke-linejoin="round"/>
<path id="Vector_4" d="M25 21.5C25 24 22.5 26 19 26" stroke="#C9CCDD" stroke-width="1.6" stroke-linecap="round" stroke-linejoin="round" stroke-dasharray="4 4"/>
<path id="Vector_5" d="M17.5 26H19" stroke="#51567A" stroke-width="1.6" stroke-linecap="round" stroke-linejoin="round"/>
</g>
</g>
</svg>
